Coordinates
nRows=116
nColumns=2
inDegrees=yes
endheader
time	ankle_angle_r	
4.0625	 -0.335686	
4.125	 -0.409227	
4.1875	 -0.406876	
4.25	 -0.387823	
4.3125	 -0.363205	
4.375	 -0.334990	
4.4375	 -0.347427	
4.5	 -0.361705	
4.5625	 -0.372548	
4.625	 -0.396210	
4.6875	 -0.395215	
4.75	 -0.385940	
4.8125	 -0.365216	
4.875	 -0.340546	
4.9375	 -0.342061	
5	 -0.328912	
5.0625	 -0.342027	
5.125	 -0.401222	
5.1875	 -0.410406	
5.25	 -0.391429	
5.3125	 -0.381511	
5.375	 -0.356046	
5.4375	 -0.344509	
5.5	 -0.347588	
5.5625	 -0.373216	
5.625	 -0.420731	
5.6875	 -0.415420	
5.75	 -0.368647	
5.8125	 -0.347910	
5.875	 -0.356302	
5.9375	 -0.362699	
6	 -0.350010	
6.0625	 -0.337479	
6.125	 -0.318002	
6.1875	 -0.301688	
6.25	 -0.331207	
6.3125	 -0.339680	
6.375	 -0.298400	
6.4375	 -0.296040	
6.5	 -0.318699	
6.5625	 -0.332611	
6.625	 -0.358547	
6.6875	 -0.368193	
6.75	 -0.366621	
6.8125	 -0.369269	
6.875	 -0.373405	
6.9375	 -0.397671	
7	 -0.397069	
7.0625	 -0.379639	
7.125	 -0.410539	
7.1875	 -0.434787	
7.25	 -0.419896	
7.3125	 -0.401001	
7.375	 -0.387747	
7.4375	 -0.393448	
7.5	 -0.398144	
7.5625	 -0.396905	
7.625	 -0.405510	
7.6875	 -0.407769	
7.75	 -0.422327	
7.8125	 -0.424948	
7.875	 -0.387302	
7.9375	 -0.373568	
8	 -0.369954	
8.0625	 -0.353778	
8.125	 -0.380443	
8.1875	 -0.417709	
8.25	 -0.412061	
8.3125	 -0.367077	
8.375	 -0.317818	
8.4375	 -0.326149	
8.5	 -0.362175	
8.5625	 -0.367216	
8.625	 -0.368933	
8.6875	 -0.368612	
8.75	 -0.355722	
8.8125	 -0.349120	
8.875	 -0.342356	
8.9375	 -0.341776	
9	 -0.347788	
9.0625	 -0.350792	
9.125	 -0.364995	
9.1875	 -0.378691	
9.25	 -0.378574	
9.3125	 -0.361346	
9.375	 -0.331076	
9.4375	 -0.333467	
9.5	 -0.365798	
9.5625	 -0.388471	
9.625	 -0.401222	
9.6875	 -0.389895	
9.75	 -0.370109	
9.8125	 -0.377235	
9.875	 -0.392031	
9.9375	 -0.397256	
10	 -0.390099	
10.0625	 -0.393172	
10.125	 -0.424149	
10.1875	 -0.440177	
10.25	 -0.429176	
10.3125	 -0.409726	
10.375	 -0.391945	
10.4375	 -0.393931	
10.5	 -0.397857	
10.5625	 -0.405734	
10.625	 -0.428447	
10.6875	 -0.429382	
10.75	 -0.421199	
10.8125	 -0.413747	
10.875	 -0.390892	
10.9375	 -0.385933	
11	 -0.390056	
11.0625	 -0.394129	
11.125	 -0.432021	
11.1875	 -0.452109	
11.25	 -0.399666	
